<svg width="1024" height="1024" viewBox="0 0 1024 1024" fill="none" xmlns="http://www.w3.org/2000/svg">
  <circle cx="512" cy="512" r="512" fill="#0052FF"/>
  <path d="M516.3 188C641.7 188 744.2 275.1 776.8 393.8H960.2C923.2 178.7 740.3 18 516.3 18C292.3 18 109.4 178.7 72.4 393.8H255.8C288.4 275.1 390.9 188 516.3 188Z" fill="white"/>
  <path d="M255.8 629H72.4C109.4 844.1 292.3 1004.8 516.3 1004.8C740.3 1004.8 923.2 844.1 960.2 629H776.8C744.2 747.7 641.7 834.8 516.3 834.8C390.9 834.8 288.4 747.7 255.8 629Z" fill="white"/>
  <path d="M516.3 673.7C427.3 673.7 355.1 601.5 355.1 512.5C355.1 423.5 427.3 351.3 516.3 351.3C605.3 351.3 677.5 423.5 677.5 512.5C677.5 601.5 605.3 673.7 516.3 673.7Z" fill="white"/>
</svg>

